<?xml version="1.0" standalone="no"?>
<!DOCTYPE svg PUBLIC "-//W3C//DTD SVG 20010904//EN"
 "http://www.w3.org/TR/2001/REC-SVG-20010904/DTD/svg10.dtd">
<svg version="1.0" xmlns="http://www.w3.org/2000/svg"
 width="931.000000pt" height="931.000000pt" viewBox="0 0 931.000000 931.000000"
 preserveAspectRatio="xMidYMid meet">
<metadata>
Created by potrace 1.14, written by Peter Selinger 2001-2017
</metadata>
<g transform="translate(0.000000,931.000000) scale(0.100000,-0.100000)"
fill="#000000" stroke="none">
<path d="M710 7954 c-25 -7 -54 -14 -65 -14 -11 0 -33 -7 -49 -15 -15 -8 -33
-15 -38 -15 -18 0 -104 -43 -168 -85 -93 -60 -250 -225 -289 -302 -71 -142
-100 -317 -101 -608 0 -117 19 -326 40 -433 21 -115 122 -363 195 -482 11 -19
34 -66 49 -103 16 -37 46 -94 66 -126 50 -77 105 -203 119 -271 7 -34 9 -90 5
-146 -4 -56 -2 -125 6 -180 17 -121 73 -293 113 -346 18 -24 57 -79 86 -123
82 -122 135 -179 219 -238 227 -160 435 -248 648 -276 249 -33 260 -37 232
-68 -9 -10 -19 -29 -23 -43 -4 -14 -24 -43 -44 -65 -147 -157 -321 -431 -408
-639 -32 -79 -76 -227 -113 -391 -37 -158 -43 -597 -11 -762 6 -28 17 -107 26
-175 19 -152 59 -375 69 -385 4 -5 16 2 27 15 10 13 31 27 46 31 25 7 35 2 84
-43 106 -98 161 -141 218 -172 31 -16 72 -39 91 -50 59 -34 141 -62 235 -81
120 -24 410 -24 501 1 34 9 75 16 91 16 16 0 49 6 74 14 24 7 71 21 104 31
102 31 324 124 424 177 159 85 321 201 429 306 120 118 294 346 355 468 41 82
94 171 131 219 19 25 28 15 56 -74 36 -110 77 -179 153 -255 84 -85 145 -120
240 -134 204 -32 407 98 487 313 50 130 63 159 81 179 17 18 18 17 42 -20 13
-22 38 -68 56 -103 35 -72 93 -170 127 -216 12 -16 37 -59 55 -94 58 -109 217
-275 399 -414 93 -72 276 -170 466 -250 299 -126 503 -177 744 -184 149 -5
294 13 440 54 97 28 300 138 345 188 22 24 56 51 75 59 54 22 82 56 130 156
36 75 49 128 70 295 12 88 26 178 31 200 16 65 23 409 11 515 -39 324 -134
617 -274 840 -70 110 -171 251 -239 331 -42 49 -63 89 -86 161 -7 24 26 35
124 44 232 20 485 113 679 251 78 56 193 170 244 243 13 19 41 55 61 80 43 52
57 79 105 197 46 115 62 196 74 369 16 241 17 247 73 337 27 45 64 107 82 137
18 30 52 87 75 125 24 39 53 93 65 120 12 28 49 106 83 175 99 202 122 302
143 610 13 196 8 309 -21 461 -33 177 -84 281 -194 397 -102 107 -205 175
-346 228 -119 45 -138 47 -423 51 -227 3 -289 1 -338 -12 -33 -8 -71 -15 -84
-15 -12 0 -45 -7 -71 -15 -27 -8 -83 -24 -124 -36 -96 -28 -274 -86 -297 -97
-10 -5 -33 -16 -51 -25 -19 -9 -38 -17 -43 -17 -11 0 -285 -134 -399 -196 -47
-25 -107 -58 -135 -72 -43 -23 -183 -114 -390 -252 -27 -19 -68 -50 -91 -69
-22 -20 -96 -83 -164 -141 -272 -231 -399 -359 -549 -550 -28 -36 -75 -94
-104 -130 -86 -105 -271 -402 -332 -535 -20 -44 -48 -104 -62 -132 -13 -29
-36 -62 -51 -74 l-27 -21 -25 30 c-14 17 -36 46 -50 66 -14 20 -57 57 -97 82
-40 25 -75 54 -78 65 -6 19 3 138 26 334 32 271 133 573 282 840 88 160 131
221 208 300 49 51 75 87 93 131 25 61 25 62 8 115 -19 60 -74 122 -128 145
-57 24 -106 18 -160 -19 -59 -40 -93 -98 -123 -210 -17 -59 -36 -99 -76 -156
-29 -42 -69 -105 -88 -141 -19 -36 -55 -103 -79 -150 -25 -47 -58 -123 -73
-170 -32 -103 -38 -114 -57 -118 -16 -3 -46 57 -98 198 -33 89 -74 166 -177
327 -73 114 -133 230 -133 255 0 33 -33 103 -63 135 -16 17 -54 42 -84 54 -53
21 -56 21 -91 5 -95 -46 -151 -120 -152 -201 0 -76 19 -117 79 -175 81 -77
131 -142 205 -262 78 -127 102 -173 133 -258 143 -384 167 -479 218 -853 19
-139 18 -141 -72 -184 -50 -24 -77 -47 -128 -110 -27 -34 -76 -63 -106 -63
-13 0 -23 18 -39 72 -30 99 -155 337 -259 493 -180 269 -226 330 -346 460 -45
50 -108 120 -138 156 -31 37 -100 104 -154 150 -54 46 -129 112 -167 147 -127
116 -434 352 -458 352 -4 0 -30 16 -57 35 -26 19 -51 35 -54 35 -3 0 -26 13
-50 29 -24 17 -103 62 -175 100 -73 39 -140 75 -150 81 -24 13 -155 67 -232
95 -19 7 -53 19 -75 28 -36 13 -189 61 -324 101 -29 9 -67 16 -85 16 -17 1
-58 7 -91 15 -83 20 -490 20 -555 -1z"/>
</g>
</svg>
